# xmcd
#
# Track frame offsets:
#  150
#  9914
#  25487
#  46611
#  61041
#  74447
#  92545
#  105198
#  114916
#  123579
#  140203
#  155925
#  165172
#  185725
#  202916
#
# Disc length: 2868 seconds
#
# Revision: 1
# Processed by: cddbd v1.5.1PL2 Copyright (c) Steve Scherf et al.
# Submitted via: Collectorz.com_Music_Collector 6.10
#
DISCID=be0b320f
DTITLE=Steve Plater and Marion Turner - Slidin' Delta
DYEAR=1900
DGENRE=Acoustic Blues - Australian Blues - Bluegrass
TTITLE0=Slidin' Delta
TTITLE1=Knee High Mamma Blues
TTITLE2=Special Rider Blues
TTITLE3=Bayou Man
TTITLE4=Candy Man
TTITLE5=Coalminre's Blues
TTITLE6=Spanish Fandango
TTITLE7=Step It Up And Go
TTITLE8=Rip Van Winkle Blues
TTITLE9=John Henry
TTITLE10=When You Got A Good Friend
TTITLE11=Black Mountain Rag
TTITLE12=Atlanta Moan
TTITLE13=Love Train Blues
TTITLE14=Working On The New Railroad
EXTD=
EXTT0=
EXTT1=
EXTT2=
EXTT3=
EXTT4=
EXTT5=
EXTT6=
EXTT7=
EXTT8=
EXTT9=
EXTT10=
EXTT11=
EXTT12=
EXTT13=
EXTT14=
PLAYORDER=
